<?xml version="1.0" encoding="UTF-8"?><svg id="Layer_2" xmlns="http://www.w3.org/2000/svg" viewBox="0 0 689.28 689.28"><defs><style>.cls-1,.cls-2{fill:#010101;}.cls-3,.cls-4,.cls-5{fill:#fff;}.cls-6{fill:#333;}.cls-7{fill:#231f20;}.cls-4{stroke-width:.42px;}.cls-4,.cls-8,.cls-9,.cls-5,.cls-2,.cls-10{stroke:#010101;}.cls-8{stroke-width:32.83px;}.cls-8,.cls-9,.cls-10{fill:none;}.cls-9{stroke-width:2.4px;}</style></defs><g id="Layer_1-2"><rect class="cls-3" width="689.28" height="689.28"/><g><path id="path2847" class="cls-2" d="M32.31,271.7l62.86,198.57,562.86-125.72-146.58-137.9L32.3,271.7h0Z"/><path id="path2851" class="cls-6" d="M94.88,470.66l1.43,65.88,551.62-119.04,11.07-72.86L94.88,470.66h0Z"/><path id="path2853" class="cls-6" d="M31.59,270.98l-2.14,37.86,67.14,227.86s-1.54-66.43-1.54-66.43c0,0-63.46-199.29-63.46-199.29Z"/><path id="path2855" class="cls-4" d="M89.06,316.24l31.29,77.88,103.49-18.82-34.71-74.93s-100.07,15.87-100.07,15.86Z"/><path id="path2857" class="cls-4" d="M430.62,259.59l50.68,63.36,96.95-19.13-56.46-60.22-91.17,16h0Z"/><path id="path3669" class="cls-1" d="M463.57,292.79c-.09,20.15-30.73,20.15-30.81,0,.09-20.15,30.73-20.15,30.81,0Z"/><path id="path2859" class="cls-8" d="M198.97,395.17c-27.62,2.03-90.73-58.08-59.62-98.47"/><path id="path3633" class="cls-8" d="M518.49,323.7c9.74-25.92-30.15-103.42-77.67-84.96"/><g id="text3646"><path id="path3651" class="cls-3" d="M541.22,428.11l-23.09-41.82,5.96-1.19c2.59,5.17,17.29,32.79,19.2,37.5,.37-5.11,6.37-37.09,7.29-42.8l5.62-1.12-9.34,48.31-5.65,1.13Z"/><path id="path3653" class="cls-3" d="M568.34,422.68l-6.96-45.05,5.51-1.1,2.86,18.5,21.64-4.33-2.86-18.5,5.51-1.1,6.96,45.05-5.51,1.1-3.28-21.23-21.64,4.33,3.28,21.23-5.51,1.1Z"/><path id="path3655" class="cls-3" d="M606.08,400.22l5.12-1.53c4.06,18.88,36.92,.91,17.19-7.18-2.21-.55-13.98-.81-16.22-1.92-9.4-2.67-9.88-15.97-2.09-20.9,8.4-6.02,23.45-4.72,25.13,7.27l-5.22,1.49c-1.55-13.62-27.96-4.68-17.76,5.74,2.08,1.83,16.09,1.54,18.46,2.58,7.62,1.71,10.76,9.88,7.94,16.74-5.62,13.45-30.6,13.98-32.55-2.28h0Z"/></g><path id="path3667" class="cls-1" d="M220.89,332.08c-.09,20.15-30.73,20.15-30.81,0,.09-20.15,30.73-20.15,30.81,0Z"/><path id="path2849" class="cls-4" d="M210.6,295.76l35.14,74.03,219.05-42.7-51.66-64.14s-202.53,32.81-202.54,32.81Z"/><path id="path3659" class="cls-9" d="M230.53,304.73l180.27-29.27"/><path id="path3661" class="cls-9" d="M236.3,317.06l180.28-29.28"/><path id="path3663" class="cls-9" d="M243.24,328.61l180.27-29.27"/><path id="path3665" class="cls-9" d="M250.56,341.71l180.27-29.28"/><path id="path3671" class="cls-5" d="M117.66,477.68c.75,4.1-.14,41.68,3.85,43.91,1.54,1.54,385.2-83.97,385.2-83.97,12.06,2.35,4.62-38.45,5.39-39.29-1.79-12.68-383.81,77.54-385.98,74.72,0,0-4.62,.78-4.62,.78l-3.85,3.85h0Z"/><path id="path3675" class="cls-2" d="M116.12,523.14l-11.56,2.31-.77-14.25,11.56-2.31,.77,14.25h0Z"/><path id="path3677" class="cls-10" d="M128.45,486.16l368.25-73.96"/><path id="path3679" class="cls-10" d="M129.99,504.65l366.71-78.58"/><g><path class="cls-7" d="M262.44,477.61l-4.19,.88-8.18-19.83,4.27-.9,5.91,15.72,.08-.02,5.55-18.13,4.11-.86-7.55,23.15Z"/><path class="cls-7" d="M277.79,456.1c.45-1.16,1.24-2.23,2.35-3.22,1.11-.99,2.37-1.64,3.76-1.93,1.26-.27,2.34-.26,3.25,.02,.91,.28,1.67,.75,2.28,1.41,.61,.66,1.07,1.49,1.37,2.49,.3,1,.46,2.1,.47,3.31l.16,13.34-3.86,.81-.14-11.91c-.01-.88-.08-1.7-.21-2.46-.13-.76-.37-1.41-.7-1.95-.34-.54-.79-.93-1.35-1.17-.57-.25-1.3-.27-2.2-.08-1.53,.32-2.78,1.23-3.75,2.73-.97,1.5-1.44,3.32-1.42,5.47l.14,11.41-3.86,.81-.41-34.3,3.86-.81,.19,16.06,.08-.02Z"/><path class="cls-7" d="M308.27,451.86c-.45-.69-1.07-1.21-1.87-1.54-.8-.33-1.69-.39-2.68-.19-.44,.09-.88,.24-1.31,.44-.44,.2-.82,.45-1.16,.75-.34,.3-.61,.64-.81,1.03-.2,.39-.3,.84-.29,1.36,.01,.91,.39,1.5,1.13,1.78,.74,.28,1.86,.45,3.34,.5,.93,.05,1.8,.15,2.6,.32,.8,.17,1.49,.44,2.09,.81,.59,.38,1.06,.88,1.4,1.5s.51,1.41,.52,2.35c.02,1.27-.19,2.39-.62,3.36-.43,.97-1,1.81-1.72,2.52-.72,.71-1.54,1.29-2.47,1.72-.93,.44-1.88,.76-2.87,.97-1.48,.31-2.93,.3-4.34-.04-1.42-.34-2.6-1.06-3.54-2.16l2.72-3.17c.53,.74,1.26,1.3,2.18,1.68,.92,.38,1.93,.46,3.03,.23,.49-.1,.96-.26,1.41-.46,.45-.2,.86-.46,1.23-.78,.37-.32,.66-.7,.87-1.14,.21-.44,.32-.96,.31-1.57-.01-1-.45-1.65-1.32-1.95-.87-.3-2.14-.49-3.81-.56-.66-.04-1.33-.12-2-.24-.67-.11-1.29-.34-1.84-.68-.55-.34-1-.81-1.35-1.42-.35-.61-.53-1.41-.54-2.41-.01-1.15,.19-2.18,.6-3.11,.41-.92,.96-1.72,1.64-2.39,.68-.67,1.45-1.23,2.33-1.67,.87-.44,1.77-.76,2.7-.96,1.4-.29,2.75-.28,4.05,.06,1.31,.33,2.32,1,3.05,2l-2.64,3.06Z"/><path class="cls-7" d="M320.17,476.37l-3.86,.81-.38-32.39,3.78-.8,.04,3.36,.12-.03c.61-1.28,1.52-2.42,2.73-3.42,1.21-1,2.61-1.67,4.23-2,1.45-.3,2.77-.29,3.96,.03,1.19,.32,2.23,.91,3.1,1.76,.87,.85,1.55,1.91,2.03,3.19,.48,1.28,.73,2.7,.75,4.28s-.2,3.1-.64,4.59c-.45,1.49-1.09,2.84-1.92,4.04-.83,1.21-1.85,2.23-3.04,3.07-1.19,.84-2.54,1.42-4.04,1.74-1.39,.29-2.71,.24-3.94-.17-1.24-.41-2.22-1.14-2.94-2.2l-.12,.03,.17,14.11Zm12.55-24.38c-.01-1-.16-1.94-.45-2.82-.29-.88-.71-1.62-1.26-2.24-.56-.61-1.24-1.04-2.05-1.3-.81-.25-1.75-.27-2.82-.04-.99,.21-1.88,.61-2.68,1.2s-1.49,1.31-2.05,2.16c-.57,.85-1,1.77-1.3,2.78-.3,1-.45,2.02-.44,3.05s.18,1.98,.51,2.85c.33,.87,.78,1.6,1.36,2.19s1.28,1.01,2.09,1.26,1.71,.28,2.7,.07c1.07-.22,2-.64,2.8-1.25,.8-.61,1.47-1.33,2.01-2.17s.94-1.76,1.2-2.75c.26-1,.39-1.99,.38-2.99Z"/><path class="cls-7" d="M354.16,444.33c-.02-1.6-.47-2.7-1.36-3.28-.89-.59-2.05-.73-3.5-.42-1.1,.23-2.13,.68-3.09,1.36-.97,.67-1.77,1.44-2.42,2.31l-2.08-2.29c.95-1.2,2.11-2.23,3.48-3.1,1.37-.87,2.86-1.47,4.44-1.8,1.4-.29,2.61-.33,3.64-.11s1.88,.64,2.55,1.26c.67,.62,1.17,1.41,1.51,2.37,.34,.96,.52,2.03,.53,3.21l.11,9.39c0,.73,.04,1.49,.09,2.28,.05,.79,.13,1.44,.25,1.93l-3.49,.73c-.23-.98-.35-1.99-.36-3.02l-.12,.03c-.7,1.3-1.58,2.38-2.66,3.24-1.07,.86-2.35,1.45-3.83,1.76-.77,.16-1.57,.22-2.41,.17-.84-.05-1.6-.26-2.29-.63-.69-.37-1.27-.93-1.73-1.68s-.7-1.75-.71-2.99c-.02-1.63,.36-3.01,1.15-4.13,.78-1.12,1.81-2.06,3.09-2.83,1.28-.77,2.73-1.4,4.34-1.89,1.61-.49,3.24-.91,4.88-1.26v-.59Zm-.91,3.87c-.96,.2-1.95,.46-2.97,.76-1.03,.31-1.95,.68-2.79,1.13-.83,.45-1.52,1-2.06,1.66-.54,.66-.81,1.44-.8,2.35,0,.63,.13,1.14,.37,1.51,.24,.37,.55,.66,.94,.85,.39,.19,.81,.29,1.28,.3,.47,0,.95-.04,1.44-.14,1.81-.38,3.19-1.27,4.15-2.67,.96-1.4,1.43-3.01,1.4-4.82v-1.13s-.96,.2-.96,.2Z"/><path class="cls-7" d="M377.9,437.19c-.42-.61-1.04-1.06-1.87-1.36-.83-.3-1.71-.35-2.64-.15-1.01,.21-1.91,.61-2.68,1.2-.78,.59-1.43,1.3-1.97,2.12-.54,.83-.95,1.74-1.22,2.74-.28,1-.41,2.01-.4,3.04s.17,1.98,.47,2.86c.3,.88,.73,1.61,1.28,2.21s1.23,1.02,2.03,1.28c.8,.26,1.7,.28,2.72,.06s1.88-.61,2.68-1.2c.8-.59,1.46-1.31,1.97-2.14l2.62,2.04c-.81,1.23-1.83,2.27-3.05,3.12-1.22,.85-2.62,1.44-4.18,1.77s-2.9,.34-4.18,.06c-1.28-.28-2.39-.81-3.33-1.6-.94-.79-1.69-1.82-2.24-3.1-.55-1.28-.84-2.78-.86-4.5s.22-3.29,.73-4.79c.5-1.5,1.21-2.85,2.13-4.04,.92-1.19,2.01-2.2,3.28-3.01,1.27-.81,2.64-1.37,4.12-1.69,1.37-.29,2.73-.27,4.1,.05,1.36,.32,2.45,.97,3.25,1.95l-2.76,3.08Z"/><path class="cls-7" d="M402.8,437.09v.73c.01,.24,0,.49-.02,.73l-15.48,3.26c.04,.9,.23,1.71,.58,2.43,.35,.72,.82,1.32,1.4,1.78,.58,.46,1.25,.78,2.01,.95,.76,.17,1.56,.17,2.41,0,1.31-.28,2.45-.83,3.4-1.67,.95-.84,1.69-1.77,2.23-2.79l2.74,1.83c-1.02,1.74-2.23,3.12-3.63,4.14-1.4,1.02-2.96,1.71-4.69,2.07-1.48,.31-2.85,.33-4.11,.05-1.27-.28-2.36-.82-3.27-1.61-.91-.79-1.64-1.83-2.18-3.11-.54-1.28-.81-2.77-.83-4.46s.22-3.25,.71-4.76c.49-1.51,1.18-2.86,2.08-4.05,.89-1.19,1.95-2.19,3.18-3.01,1.23-.82,2.55-1.38,3.98-1.68s2.72-.32,3.9-.05c1.17,.27,2.17,.8,2.99,1.6,.82,.8,1.46,1.84,1.91,3.12,.45,1.28,.69,2.79,.71,4.51Zm-3.96-.89c-.04-.84-.18-1.61-.42-2.3-.24-.69-.59-1.26-1.05-1.71-.46-.45-1.02-.76-1.7-.94-.67-.18-1.46-.17-2.37,.02-.82,.17-1.59,.49-2.31,.96-.72,.47-1.35,1.03-1.87,1.69-.53,.66-.96,1.39-1.29,2.2-.33,.81-.52,1.65-.57,2.51l11.58-2.44Z"/></g></g></g></svg>