<svg width="3568" height="1869" viewBox="0 0 3568 1869" fill="none" xmlns="http://www.w3.org/2000/svg">
<rect width="3568" height="1869" fill="black"/>
<circle cx="824" cy="935" r="350" fill="black"/>
<circle cx="824" cy="935" r="350" stroke="#1D87C2"/>
<rect x="513" y="396" width="1078" height="1078" fill="#F2F2F2"/>
<circle cx="832" cy="935" r="628" fill="#F2F2F2"/>
<circle cx="832" cy="935" r="628" stroke="#1D87C2"/>
<circle cx="982" cy="941" r="400" fill="black"/>
<circle cx="982" cy="941" r="400" stroke="#1D87C2"/>
<circle cx="982" cy="941" r="150" fill="#828282"/>
<circle cx="982" cy="941" r="150" stroke="#1D87C2"/>
<rect x="404" y="81" width="1187" height="315" fill="black"/>
<rect x="404" y="1474" width="1187" height="315" fill="black"/>
<rect width="1078" height="1078" transform="matrix(-1 0 0 1 3062 396)" fill="#F2F2F2"/>
<circle cx="628" cy="628" r="628" transform="matrix(-1 0 0 1 3371 307)" fill="#F2F2F2"/>
<circle cx="628" cy="628" r="628" transform="matrix(-1 0 0 1 3371 307)" stroke="#1D87C2"/>
<circle cx="400" cy="400" r="400" transform="matrix(-1 0 0 1 2993 541)" fill="black"/>
<circle cx="400" cy="400" r="400" transform="matrix(-1 0 0 1 2993 541)" stroke="#1D87C2"/>
<circle cx="150" cy="150" r="150" transform="matrix(-1 0 0 1 2743 791)" fill="#828282"/>
<circle cx="150" cy="150" r="150" transform="matrix(-1 0 0 1 2743 791)" stroke="#1D87C2"/>
<rect width="1187" height="315" transform="matrix(-1 0 0 1 3171 81)" fill="black"/>
<rect width="1187" height="315" transform="matrix(-1 0 0 1 3171 1474)" fill="black"/>
<rect x="940" width="882" height="1869" fill="black"/>
<rect x="1759" width="882" height="1869" fill="black"/>
<rect x="1142" y="603" width="1279" height="644" fill="white"/>
<path d="M1057.47 654.375H1140.34L1314.46 1110.19L1487.78 654.375H1570.66L1352.31 1209H1275.81L1057.47 654.375ZM1573.68 654.375H1653.37V873.516H1915.54V654.375H1995.23V1209H1915.54V943.641H1653.37V1209H1573.68V654.375ZM2393.11 1170.35C2374.25 1183.63 2350.08 1194.12 2320.6 1201.83C2291.11 1209.27 2254.99 1212.98 2212.22 1212.98C2169.72 1212.98 2126.82 1210.46 2083.53 1205.41V1128.12C2122.31 1136.88 2161.35 1141.27 2200.67 1141.27C2239.98 1141.27 2269.46 1139.14 2289.12 1134.89C2308.78 1130.38 2324.58 1124.53 2336.53 1117.36C2358.58 1104.08 2369.6 1086.81 2369.6 1065.56C2369.6 1049.09 2365.35 1036.34 2356.85 1027.31C2343.31 1013.23 2323.78 1000.35 2298.28 988.664L2196.28 942.047C2161.22 925.578 2136.38 910.305 2121.78 896.227C2090.43 865.945 2074.76 830.883 2074.76 791.039C2074.76 750.133 2092.56 717.062 2128.15 691.828C2167.2 664.203 2222.71 650.391 2294.7 650.391C2341.18 650.391 2383.68 652.25 2422.2 655.969V732.07C2389.53 724.633 2353 720.914 2312.63 720.914C2272.52 720.914 2243.3 723.039 2224.97 727.289C2206.91 731.273 2192.7 736.453 2182.34 742.828C2163.48 754.516 2154.05 769.922 2154.05 789.047C2154.05 807.641 2160.03 823.047 2171.98 835.266C2182.6 845.625 2201.99 857.578 2230.15 871.125L2334.94 920.93C2369.74 937.398 2394.04 952.938 2407.85 967.547C2421.93 982.156 2432.29 996.898 2438.93 1011.77C2445.57 1026.38 2448.89 1044.05 2448.89 1064.77C2448.89 1085.22 2444.38 1104.61 2435.35 1122.94C2426.31 1141 2412.24 1156.8 2393.11 1170.35Z" fill="black"/>
</svg>
