<?xml version="1.0" encoding="UTF-8"?><svg id="Layer_2" xmlns="http://www.w3.org/2000/svg" viewBox="0 0 361.63 130"><defs><style>.cls-1{fill:#fff;}.cls-2{fill:#231f20;}</style></defs><g id="Layer_1-2"><rect class="cls-1" width="361.63" height="130"/><g><path class="cls-2" d="M72.54,82.14h-7.34l-13.9-34.13h7.49l10.01,26.86h.14l10.08-26.86h7.2l-13.68,34.13Z"/><path class="cls-2" d="M99.82,53.19c.82-1.68,2.21-3.12,4.18-4.32,1.97-1.2,4.18-1.8,6.62-1.8,2.21,0,4.1,.37,5.69,1.12,1.58,.75,2.9,1.74,3.96,2.99,1.06,1.25,1.84,2.71,2.34,4.39s.76,3.48,.76,5.4v21.17h-6.77v-18.91c0-1.4-.11-2.72-.32-3.97-.22-1.25-.61-2.36-1.19-3.32-.58-.96-1.36-1.73-2.34-2.31-.98-.58-2.27-.87-3.85-.87-2.69,0-4.9,1.02-6.62,3.07-1.73,2.04-2.59,4.78-2.59,8.19v18.12h-6.77V27.7h6.77v25.49h.14Z"/><path class="cls-2" d="M153.25,56.65c-.77-1.25-1.85-2.27-3.24-3.06-1.39-.79-2.95-1.19-4.68-1.19-.77,0-1.54,.08-2.3,.25-.77,.17-1.45,.43-2.05,.79-.6,.36-1.08,.82-1.44,1.37-.36,.55-.54,1.24-.54,2.05,0,1.44,.65,2.51,1.94,3.21s3.24,1.33,5.83,1.91c1.63,.38,3.14,.84,4.54,1.37,1.39,.53,2.6,1.19,3.64,1.98,1.03,.79,1.84,1.74,2.41,2.84,.58,1.1,.86,2.4,.86,3.89,0,2.02-.38,3.72-1.15,5.11-.77,1.39-1.79,2.53-3.06,3.42-1.27,.89-2.72,1.52-4.36,1.91-1.63,.38-3.31,.58-5.04,.58-2.59,0-5.12-.5-7.6-1.51-2.47-1.01-4.53-2.54-6.16-4.61l4.82-4.1c.91,1.34,2.17,2.47,3.78,3.38s3.37,1.37,5.29,1.37c.86,0,1.69-.08,2.48-.25,.79-.17,1.51-.44,2.16-.83,.65-.38,1.16-.89,1.55-1.51,.38-.62,.58-1.42,.58-2.38,0-1.58-.76-2.76-2.27-3.53-1.51-.77-3.73-1.49-6.66-2.16-1.15-.29-2.32-.63-3.49-1.04-1.18-.41-2.24-.97-3.2-1.69-.96-.72-1.74-1.62-2.34-2.7-.6-1.08-.9-2.41-.9-4,0-1.82,.37-3.39,1.12-4.72,.74-1.32,1.72-2.4,2.92-3.24,1.2-.84,2.57-1.46,4.1-1.87,1.54-.41,3.12-.61,4.75-.61,2.45,0,4.81,.48,7.09,1.44,2.28,.96,4.04,2.35,5.29,4.18l-4.68,3.96Z"/><path class="cls-2" d="M173.55,99.42h-6.77V48.01h6.62v5.33h.22c1.1-1.82,2.72-3.32,4.85-4.5,2.13-1.18,4.61-1.76,7.43-1.76,2.54,0,4.85,.46,6.93,1.37,2.08,.91,3.88,2.19,5.39,3.82,1.51,1.63,2.67,3.54,3.48,5.72,.81,2.18,1.22,4.52,1.22,7.02s-.41,4.85-1.22,7.06c-.81,2.21-1.96,4.13-3.45,5.76-1.49,1.63-3.28,2.92-5.39,3.85-2.11,.94-4.48,1.4-7.11,1.4-2.44,0-4.74-.53-6.89-1.58-2.16-1.06-3.86-2.54-5.1-4.46h-.22v22.39Zm22.46-34.42c0-1.58-.24-3.12-.72-4.61-.48-1.49-1.2-2.81-2.16-3.96s-2.15-2.06-3.56-2.74c-1.42-.67-3.06-1.01-4.93-1.01-1.73,0-3.3,.34-4.72,1.01-1.42,.67-2.63,1.58-3.64,2.74s-1.79,2.47-2.34,3.96c-.55,1.49-.83,3.05-.83,4.68s.28,3.19,.83,4.68c.55,1.49,1.33,2.8,2.34,3.92,1.01,1.13,2.22,2.03,3.64,2.7,1.42,.67,2.99,1.01,4.72,1.01,1.87,0,3.52-.35,4.93-1.04,1.42-.7,2.6-1.62,3.56-2.77,.96-1.15,1.68-2.47,2.16-3.96,.48-1.49,.72-3.02,.72-4.61Z"/><path class="cls-2" d="M233.67,60.03c0-2.54-.77-4.43-2.3-5.65s-3.58-1.84-6.12-1.84c-1.92,0-3.73,.37-5.44,1.12-1.7,.74-3.13,1.69-4.28,2.84l-3.6-4.32c1.68-1.58,3.73-2.83,6.16-3.74,2.42-.91,5.03-1.37,7.81-1.37,2.45,0,4.57,.35,6.37,1.04,1.8,.7,3.28,1.64,4.43,2.84,1.15,1.2,2.02,2.62,2.59,4.25,.58,1.63,.86,3.38,.86,5.26v14.9c0,1.15,.04,2.37,.11,3.64s.2,2.32,.4,3.13h-6.12c-.38-1.63-.58-3.26-.58-4.9h-.22c-1.25,1.82-2.82,3.24-4.72,4.25-1.9,1.01-4.14,1.51-6.73,1.51-1.34,0-2.75-.18-4.21-.54-1.46-.36-2.8-.95-4-1.76-1.2-.82-2.2-1.89-2.99-3.24-.79-1.34-1.19-3-1.19-4.97,0-2.59,.7-4.64,2.09-6.16,1.39-1.51,3.21-2.66,5.47-3.46,2.26-.79,4.8-1.31,7.63-1.55,2.83-.24,5.69-.36,8.57-.36v-.94Zm-1.66,5.83c-1.68,0-3.42,.07-5.22,.22-1.8,.14-3.43,.43-4.9,.86-1.46,.43-2.68,1.08-3.64,1.94-.96,.86-1.44,2.02-1.44,3.46,0,1.01,.2,1.85,.61,2.52,.41,.67,.95,1.22,1.62,1.66,.67,.43,1.42,.73,2.23,.9,.82,.17,1.66,.25,2.52,.25,3.17,0,5.6-.95,7.31-2.84s2.56-4.28,2.56-7.16v-1.8h-1.66Z"/><path class="cls-2" d="M275.36,56.65c-.72-1.1-1.8-2.03-3.24-2.77-1.44-.74-2.98-1.12-4.61-1.12-1.78,0-3.35,.34-4.72,1.01-1.37,.67-2.53,1.57-3.49,2.7s-1.69,2.44-2.2,3.92c-.5,1.49-.76,3.05-.76,4.68s.25,3.19,.76,4.68c.5,1.49,1.24,2.8,2.2,3.92,.96,1.13,2.14,2.03,3.53,2.7,1.39,.67,2.98,1.01,4.75,1.01s3.3-.33,4.72-1.01c1.42-.67,2.58-1.58,3.49-2.74l4.54,4.1c-1.44,1.68-3.24,2.99-5.4,3.92s-4.61,1.4-7.34,1.4-5.08-.43-7.31-1.3c-2.23-.86-4.17-2.08-5.8-3.64-1.63-1.56-2.92-3.44-3.85-5.65-.94-2.21-1.4-4.68-1.4-7.42s.46-5.14,1.37-7.34c.91-2.21,2.18-4.1,3.82-5.69,1.63-1.58,3.56-2.81,5.8-3.67,2.23-.86,4.64-1.29,7.24-1.29,2.4,0,4.79,.48,7.16,1.44,2.38,.96,4.26,2.35,5.65,4.18l-4.9,3.96Z"/><path class="cls-2" d="M318.91,64.78v1.15c0,.38-.02,.77-.07,1.15h-27.14c.05,1.43,.37,2.78,.97,4.04,.6,1.26,1.4,2.36,2.41,3.29,1.01,.93,2.17,1.66,3.49,2.18,1.32,.52,2.72,.79,4.21,.79,2.3,0,4.3-.5,5.98-1.51,1.68-1.01,3-2.23,3.96-3.67l4.75,3.82c-1.83,2.42-3.97,4.2-6.44,5.34-2.47,1.14-5.22,1.71-8.24,1.71-2.59,0-4.99-.43-7.2-1.3-2.21-.86-4.1-2.08-5.69-3.64-1.58-1.56-2.83-3.44-3.74-5.65-.91-2.21-1.37-4.66-1.37-7.34s.44-5.08,1.33-7.31c.89-2.23,2.13-4.14,3.72-5.72,1.59-1.58,3.46-2.82,5.63-3.71,2.17-.89,4.5-1.33,7-1.33s4.77,.41,6.82,1.22c2.04,.82,3.78,1.99,5.2,3.53,1.42,1.54,2.51,3.4,3.28,5.58,.77,2.18,1.15,4.64,1.15,7.38Zm-6.91-2.74c-.05-1.34-.28-2.6-.68-3.78-.41-1.18-1.01-2.2-1.8-3.06-.79-.86-1.78-1.55-2.95-2.05-1.18-.5-2.56-.76-4.14-.76-1.44,0-2.8,.25-4.07,.76-1.27,.5-2.38,1.19-3.31,2.05-.94,.87-1.71,1.88-2.3,3.06-.6,1.18-.95,2.44-1.04,3.78h20.3Z"/></g></g></svg>